PathFileType   4   (X/Y/Z)
DataRate	CameraRate	NumFrames	NumMarkers	Units	OrigDataRate	OrigDataStartFrame	OrigNumFrames
120.0	120.0	7	37	mm	120.0	118	156
Frame#	Time	midhip	hip_r	hip_l	knee_r	knee_l	ankle_r	ankle_l	midasis	asis_r	asis_l	psis_r	psis_l	epicondLat_r	epicondLat_l	epicondMed_r	epicondMed_l	malleolusLat_r	malleolusLat_l	malleolusMedv_r	malleolusMedv_l	neck	subclavicle_r	subclavicle_l	sternalnotch	xyphoidprocess	thighwand_r	thighwand_l	upperleg1_r	upperleg1_l	upperleg2_r	upperleg2_l	shankwand_r	shankwand_l	lowerleg1_r	lowerleg1_l	toe_r	toe_l
 	 	X1	Y1	Z1	X2	Y2	Z2	X3	Y3	Z3	X4	Y4	Z4	X5	Y5	Z5	X6	Y6	Z6	X7	Y7	Z7	X8	Y8	Z8	X9	Y9	Z9	X10	Y10	Z10	X11	Y11	Z11	X12	Y12	Z12	X13	Y13	Z13	X14	Y14	Z14	X15	Y15	Z15	X16	Y16	Z16	X17	Y17	Z17	X18	Y18	Z18	X19	Y19	Z19	X20	Y20	Z20	X21	Y21	Z21	X22	Y22	Z22	X23	Y23	Z23	X24	Y24	Z24	X25	Y25	Z25	X26	Y26	Z26	X27	Y27	Z27	X28	Y28	Z28	X29	Y29	Z29	X30	Y30	Z30	X31	Y31	Z31	X32	Y32	Z32	X33	Y33	Z33	X34	Y34	Z34	X35	Y35	Z35	X36	Y36	Z36	X37	Y37	Z37

	118	1.24167	2145.124	820.287	-232.308	2141.136	805.089	-154.117	2127.151	806.088	-305.597	2123.433	439.589	-179.592	2277.495	439.516	-354.207	2079.173	64.465	-201.354	2145.874	114.693	-326.046	2226.145	877.406	-234.824	2233.177	876.604	-116.154	2219.113	878.207	-353.493	2034.422	943.060	-194.724	2026.479	936.894	-249.563	2133.824	435.121	-122.706	2282.290	449.042	-411.218	2114.298	440.035	-227.461	2313.184	451.226	-295.477	2066.758	63.724	-163.336	2122.931	121.206	-358.158	2088.856	74.185	-234.513	2166.781	116.941	-306.736	2096.434	1375.283	-221.520	2228.533	1317.526	-182.992	2218.996	1312.098	-288.984	2220.583	1311.207	-235.065	2262.052	1243.159	-239.071	2285.370	564.400	-204.156	2272.066	589.677	-490.669	2232.604	616.812	-138.198	2201.879	605.962	-423.403	2214.252	531.156	-139.266	2246.281	529.973	-420.242	2070.613	137.124	-87.475	2278.081	193.579	-356.349	2071.634	148.054	-129.815	2239.237	207.731	-351.876	2178.679	36.321	-175.450	2220.594	62.083	-382.936
	119	1.25000	2150.514	819.810	-232.313	2146.524	804.606	-154.382	2132.765	805.890	-305.880	2126.606	439.341	-180.109	2286.917	440.634	-353.905	2079.368	64.484	-201.722	2166.662	110.507	-327.931	2231.769	876.925	-234.838	2238.628	875.907	-116.107	2224.911	877.944	-353.568	2040.038	942.851	-194.957	2032.234	936.744	-249.756	2136.566	434.786	-123.152	2291.206	449.950	-410.992	2116.607	441.907	-230.471	2321.021	452.988	-294.258	2066.983	63.852	-163.693	2143.149	116.570	-359.718	2088.271	74.385	-235.150	2187.640	113.066	-308.982	2102.725	1375.054	-221.496	2234.987	1316.929	-183.305	2225.396	1311.419	-289.358	2226.884	1310.651	-235.327	2268.342	1242.446	-239.362	2289.681	563.199	-203.505	2278.890	589.930	-490.932	2236.644	615.901	-137.528	2208.949	605.991	-423.712	2216.716	530.070	-139.818	2253.724	530.073	-419.780	2071.490	137.310	-87.839	2295.688	194.355	-358.765	2072.051	148.179	-130.241	2256.437	207.041	-353.488	2178.789	36.392	-175.545	2242.628	61.323	-386.053
	120	1.25833	2156.380	819.689	-232.413	2152.040	804.072	-154.633	2138.456	805.620	-306.145	2129.822	439.106	-180.614	2296.165	441.649	-353.647	2079.649	64.563	-202.062	2187.436	106.584	-329.961	2237.488	876.390	-234.876	2244.214	875.170	-116.060	2230.762	877.610	-353.691	2045.688	942.598	-195.267	2038.022	936.535	-250.014	2139.312	434.469	-123.584	2299.917	450.735	-410.808	2119.060	443.687	-232.592	2329.980	454.510	-293.969	2067.243	64.048	-164.038	2163.403	112.157	-361.447	2088.395	74.484	-235.637	2208.654	109.989	-311.157	2109.365	1374.970	-221.298	2241.430	1316.132	-183.907	2231.904	1310.645	-289.536	2233.207	1310.082	-235.605	2274.491	1241.486	-239.705	2294.005	561.958	-202.725	2285.549	589.982	-491.199	2241.289	614.963	-137.038	2215.925	605.702	-423.820	2219.675	529.129	-140.170	2261.386	530.201	-419.635	2072.288	137.480	-88.219	2313.125	195.289	-361.161	2072.711	148.141	-130.665	2273.419	206.979	-355.448	2178.883	36.492	-175.663	2264.590	60.786	-389.069
	121	1.26667	2162.140	819.379	-232.542	2157.663	803.503	-154.883	2144.210	805.293	-306.405	2133.095	438.884	-181.093	2305.236	442.561	-353.444	2079.989	64.697	-202.369	2208.146	102.974	-332.111	2243.282	875.816	-234.947	2249.909	874.411	-116.031	2236.655	877.220	-353.863	2051.381	942.314	-195.641	2043.849	936.268	-250.333	2142.102	434.172	-123.990	2308.433	451.402	-410.677	2121.850	444.599	-232.651	2338.706	454.919	-295.106	2067.514	64.307	-164.366	2183.662	108.012	-363.338	2089.058	74.236	-235.980	2229.872	107.154	-313.415	2116.261	1374.806	-221.160	2247.856	1315.278	-184.408	2238.135	1309.871	-289.487	2239.551	1309.492	-235.893	2280.402	1240.457	-240.006	2298.316	560.659	-201.879	2292.063	589.848	-491.465	2246.497	614.662	-137.110	2222.725	605.971	-423.469	2223.161	528.332	-139.966	2268.551	530.562	-419.902	2072.996	137.639	-88.600	2330.380	196.387	-363.472	2073.611	148.218	-131.352	2290.407	206.515	-357.677	2178.949	36.614	-175.791	2286.477	60.467	-391.946
	122	1.27500	2167.895	818.973	-232.638	2163.360	802.924	-155.155	2150.023	804.918	-306.684	2136.436	438.674	-181.545	2314.118	443.373	-353.299	2080.356	64.868	-202.645	2228.746	99.701	-334.343	2249.132	875.225	-235.065	2255.674	873.663	-116.043	2242.590	876.786	-354.088	2057.119	942.000	-196.067	2049.708	935.954	-250.712	2144.964	433.902	-124.374	2316.749	451.955	-410.600	2125.670	444.517	-233.288	2345.455	454.565	-295.650	2067.774	64.612	-164.676	2203.899	104.161	-365.371	2090.123	74.018	-236.090	2250.528	104.218	-315.898	2122.782	1374.210	-221.551	2254.210	1314.762	-184.600	2244.437	1309.290	-289.675	2245.932	1308.887	-236.189	2286.705	1239.894	-240.166	2302.607	559.297	-201.030	2298.442	589.548	-491.722	2250.988	614.265	-137.148	2229.242	606.088	-423.310	2226.669	527.291	-139.925	2274.933	530.486	-420.034	2073.617	137.804	-88.966	2347.444	197.659	-365.621	2074.771	148.517	-131.851	2307.324	206.163	-359.575	2178.982	36.749	-175.913	2308.294	60.355	-394.647
	123	1.28333	2173.649	818.494	-232.637	2169.081	802.345	-155.482	2155.875	804.504	-307.020	2139.833	438.474	-181.978	2322.801	444.076	-353.202	2080.723	65.052	-202.900	2249.193	96.768	-336.615	2255.007	874.623	-235.248	2261.451	872.935	-116.137	2248.563	876.310	-354.359	2062.901	941.650	-196.542	2055.598	935.606	-251.156	2147.905	433.658	-124.745	2324.866	452.383	-410.567	2130.264	444.146	-235.684	2352.443	455.061	-295.140	2068.008	64.939	-164.975	2224.093	100.612	-367.521	2091.333	74.272	-236.034	2270.211	101.530	-318.188	2128.983	1373.475	-222.297	2260.470	1314.522	-184.672	2250.794	1308.797	-290.241	2252.348	1308.266	-236.500	2293.213	1239.624	-240.304	2306.879	557.874	-200.247	2304.685	589.103	-491.964	2254.251	613.029	-136.405	2235.082	605.114	-423.253	2229.922	526.156	-140.196	2281.236	530.162	-419.761	2074.169	138.007	-89.312	2364.302	199.116	-367.520	2075.983	148.807	-131.750	2323.805	206.643	-360.401	2178.991	36.883	-176.021	2330.039	60.448	-397.140
	124	1.29167	2179.308	817.898	-232.796	2174.791	801.774	-155.872	2161.752	804.053	-307.423	2143.248	438.281	-182.401	2331.283	444.648	-353.135	2081.072	65.229	-203.149	2269.458	94.167	-338.880	2260.885	874.009	-235.495	2267.201	872.230	-116.321	2254.570	875.788	-354.668	2068.724	941.262	-197.072	2061.530	935.237	-251.668	2150.900	433.436	-125.112	2332.784	452.660	-410.559	2133.700	443.867	-235.987	2360.865	455.890	-295.023	2068.213	65.265	-165.272	2244.226	97.362	-369.753	2092.397	74.687	-235.996	2289.884	99.365	-320.367	2135.529	1372.979	-222.945	2266.940	1314.035	-184.909	2256.983	1308.331	-290.654	2258.799	1307.620	-236.835	2299.474	1239.116	-240.735	2311.141	556.400	-199.588	2310.785	588.528	-492.188	2257.946	611.587	-135.669	2240.973	603.631	-422.983	2233.292	525.440	-139.715	2287.888	529.924	-419.536	2074.677	138.279	-89.634	2380.934	200.762	-369.094	2077.040	149.151	-131.541	2340.036	207.175	-361.286	2178.999	37.008	-176.113	2351.695	60.749	-399.408
